<svg width="100%" height="100%" viewBox="0 0 166 180" fill="white" xmlns="http://www.w3.org/2000/svg">
<path d="M165.154 115.08C161.836 133.031 154.684 148.434 141.388 160.446C130.672 170.131 117.818 175.702 103.576 178.151C87.7235 180.869 71.9819 180.465 56.5228 176.008C31.2944 168.723 14.6556 152.426 6.32394 127.619C2.57593 116.44 0.941524 104.954 0.695752 93.1753C0.425404 79.6697 1.65428 66.4091 5.78324 53.5035C12.161 33.5697 24.1424 18.1051 43.1405 8.79937C53.4629 3.74245 64.6209 1.31806 76.2091 0.436469C88.3993 -0.494103 100.307 0.436463 112.006 3.64449C136.571 10.3789 152.718 26.1251 161.074 49.9527C162.241 53.2831 163.114 56.7238 164.232 60.4951C162.93 60.642 162.057 60.8134 161.197 60.8134C153.418 60.8379 145.627 60.7522 137.849 60.8869C135.723 60.9236 134.875 60.1155 134.137 58.2176C129.529 46.1814 122.549 36.0186 110.826 29.7372C92.1474 19.7213 65.1002 21.5702 49.1374 36.3859C40.8303 44.0999 35.9886 53.8953 33.236 64.7928C30.2375 76.6576 29.4019 88.7061 30.729 100.828C32.1422 113.783 35.3865 126.174 43.5215 136.826C50.7717 146.316 60.2585 152.205 71.9573 154.519C84.934 157.079 97.542 156.307 109.622 150.393C122.131 144.259 129.664 133.973 134.211 121.252C136.386 115.154 136.19 115.08 142.629 115.08C149.99 115.08 157.338 115.08 165.129 115.08H165.154Z" fill="white"></path>
</svg>