<svg width="100%" height="100%" viewBox="0 0 210 352" fill="white" xmlns="http://www.w3.org/2000/svg">
<path d="M209.36 0.273438C209.36 6.95886 209.36 13.2525 209.36 19.5583C209.36 24.1622 207.038 26.4641 202.392 26.4641C182.829 26.4641 163.278 26.5131 143.715 26.4151C141.281 26.4151 139.745 27.1498 138.369 29.1089C133.146 36.5045 130.185 44.8919 128.329 53.5487C125.466 66.9685 123.266 80.523 120.809 94.0285C120.747 94.3958 120.907 94.8121 121.018 95.6325C122.455 95.6325 123.856 95.6325 125.257 95.6325C151.886 95.6325 178.516 95.6325 205.133 95.6325C209.336 95.6325 209.348 95.6448 209.348 99.7956C209.348 154.699 209.323 209.603 209.409 264.519C209.409 267.543 208.721 268.621 205.502 268.511C198.448 268.266 191.37 268.29 184.304 268.511C181.404 268.596 180.728 267.605 180.728 264.862C180.801 215.162 180.777 165.462 180.777 115.762C180.777 112.473 179.106 110.828 175.763 110.828C157.638 110.828 139.512 110.889 121.386 110.767C118.56 110.754 117.626 111.587 117.159 114.428C114.455 130.651 111.457 146.826 108.618 163.025C105.915 178.417 103.31 193.832 100.594 209.223C96.8951 230.223 93.2208 251.222 89.3499 272.196C88.0104 279.482 86.3269 286.718 84.3976 293.869C82.1365 302.256 76.9753 308.782 69.8602 313.668C53.627 324.822 37.3078 335.855 21.0132 346.948C20.6814 347.181 20.2512 347.315 19.9809 347.597C14.5125 353.462 7.49571 352.433 0.257742 352.103C0.184011 350.523 0.0611578 349.03 0.0611578 347.548C0.0365806 340.716 0.134841 333.871 0.0119555 327.039C-0.0249102 324.724 0.773862 324.088 3.02267 324.1C16.1346 324.186 29.2342 324.051 42.3461 324.222C45.025 324.259 46.6962 323.439 47.5442 321.076C49.8175 314.77 52.8037 308.599 54.0694 302.085C58.5547 278.931 62.4748 255.679 66.5423 232.451C70.1306 211.954 73.5959 191.432 77.2088 170.923C80.5021 152.226 83.906 133.553 87.2608 114.856C87.9613 110.95 87.863 110.828 83.9798 110.828C74.7634 110.828 65.5469 110.754 56.3305 110.865C53.8974 110.901 53.074 110.118 53.2338 107.705C53.4181 104.755 53.4427 101.779 53.2338 98.8283C53.0494 96.1835 54.1309 95.5713 56.5886 95.5958C66.825 95.706 77.0736 95.5713 87.31 95.6815C89.7677 95.706 90.8245 95.0938 91.4021 92.4857C93.7123 82.0658 96.0226 71.6091 98.9473 61.3483C102.351 49.4223 109.786 40.3492 120.243 33.5903C136.968 22.7908 153.57 11.8199 170.233 0.946881C170.786 0.57955 171.536 0.322416 172.187 0.322416C184.365 0.285683 196.543 0.297931 209.336 0.297931L209.36 0.273438Z" fill="white"></path>
</svg>