<svg width="100%" height="100%" viewBox="0 0 168 260" fill="white" xmlns="http://www.w3.org/2000/svg">
<path d="M5.84877 195.7H32.773C34.0019 199.704 34.985 203.83 36.4965 207.761C41.8666 221.695 52.4716 229.886 66.5666 233.645C72.2317 235.163 78.2039 236.265 84.0287 236.278C98.9962 236.314 113.202 233.119 124.286 222.221C130.467 216.148 134.731 208.556 136.464 199.998C137.656 194.145 138.418 188.121 138.504 182.17C138.737 164.93 138.553 147.677 138.504 130.437C138.504 128.099 138.246 125.76 138.123 123.581C137.631 134.686 134.817 145.192 128.452 154.669C120.845 166.007 109.994 172.631 97.1037 176.244C87.9733 178.803 78.5726 179.672 69.1472 178.999C40.2568 176.929 19.7349 162.836 8.74889 135.898C1.49863 118.107 -0.000570729 99.4102 0.994804 80.3947C1.56008 69.4727 3.40335 58.8201 6.78271 48.388C15.7042 20.8136 37.1232 2.47159 67.2302 0.463513C79.359 -0.344615 91.1684 0.500238 102.523 4.62659C125.982 13.1364 136.353 31.0744 138.602 54.9509C138.602 39.0455 138.664 23.1278 138.541 7.22241C138.516 4.45518 139.229 3.48788 142.129 3.5491C149.699 3.73276 157.281 3.68377 164.863 3.57357C167.149 3.53684 167.824 4.28375 167.824 6.5612C167.775 66.0566 168.046 125.552 167.616 185.047C167.48 202.973 162.221 219.736 150.375 233.902C141.158 244.91 129.361 251.963 115.721 255.856C97.2881 261.109 78.548 261.158 59.9185 257.13C41.4856 253.15 26.1618 244.102 15.6919 227.927C9.99003 219.111 7.10223 209.34 5.60302 199.092C5.517 198.492 5.55385 197.867 5.59072 197.255C5.6153 196.851 5.71359 196.459 5.84877 195.724V195.7ZM141.023 90.1657C140.851 79.4886 139.708 69.6197 136.464 60.0936C133.257 50.7144 128.599 42.1188 120.845 35.6783C108.716 25.6012 94.5969 22.4054 79.0518 23.9849C58.5053 26.0787 44.4349 36.6211 36.3859 55.453C31.6916 66.4361 30.4628 78.0315 30.4259 89.7494C30.3891 100.439 31.7531 111.006 35.5503 121.144C39.6424 132.041 46.0201 141.078 56.0599 147.322C66.2103 153.628 77.2945 155.575 89.1039 154.987C108.716 154.02 123.328 145.253 132.556 127.891C138.934 115.891 140.642 102.851 141.023 90.178V90.1657Z" fill="white"></path>
</svg>