<svg width="100%" height="100%" viewBox="0 0 30 269" fill="white" xmlns="http://www.w3.org/2000/svg">
<path d="M0.984007 182.091C0.984007 154.554 1.04545 127.004 0.910279 99.4665C0.89799 96.3075 1.80734 95.4748 4.87948 95.5606C11.9331 95.7687 19.0113 95.7565 26.065 95.5606C28.9036 95.4871 29.7024 96.3809 29.6901 99.1849C29.6041 137.951 29.6287 176.716 29.6287 215.47C29.6287 231.889 29.5549 248.321 29.6901 264.741C29.7147 267.729 28.793 268.561 25.8684 268.475C18.7041 268.279 11.5399 268.292 4.37567 268.475C1.6476 268.537 0.922561 267.704 0.922561 265.01C1.02087 237.362 0.984007 209.727 0.984007 182.079V182.091Z" fill="white"></path>
<path d="M1.27259 0.371622H29.3643C29.4626 1.26546 29.6346 2.13481 29.6346 3.00416C29.6592 13.4976 29.5855 24.0032 29.6961 34.4967C29.7207 36.9088 28.9588 37.6435 26.5502 37.5945C18.8821 37.4598 11.2141 37.5088 3.54598 37.57C1.77643 37.5822 0.965388 37.117 0.977677 35.1823C1.05141 24.0767 1.01453 12.9711 1.0391 1.85319C1.0391 1.46137 1.16201 1.06955 1.28489 0.359375L1.27259 0.371622Z" fill="white"></path>
</svg>