<svg width="100%" height="100%" viewBox="0 0 25 25" fill="white" xmlns="http://www.w3.org/2000/svg">
<path fill-rule="evenodd" clip-rule="evenodd" d="M16.4531 3.03711H8.45312C5.6917 3.03711 3.45312 5.27569 3.45312 8.03711V16.0371C3.45312 18.7985 5.6917 21.0371 8.45312 21.0371H16.4531C19.2145 21.0371 21.4531 18.7985 21.4531 16.0371V8.03711C21.4531 5.27569 19.2145 3.03711 16.4531 3.03711ZM19.7031 16.0371C19.6976 17.8297 18.2457 19.2816 16.4531 19.2871H8.45312C6.66048 19.2816 5.20861 17.8297 5.20312 16.0371V8.03711C5.20861 6.24446 6.66048 4.7926 8.45312 4.78711H16.4531C18.2457 4.7926 19.6976 6.24446 19.7031 8.03711V16.0371ZM17.2031 8.28711C17.7554 8.28711 18.2031 7.83939 18.2031 7.28711C18.2031 6.73483 17.7554 6.28711 17.2031 6.28711C16.6508 6.28711 16.2031 6.73483 16.2031 7.28711C16.2031 7.83939 16.6508 8.28711 17.2031 8.28711ZM12.4531 7.53711C9.96784 7.53711 7.95312 9.55183 7.95312 12.0371C7.95312 14.5224 9.96784 16.5371 12.4531 16.5371C14.9384 16.5371 16.9531 14.5224 16.9531 12.0371C16.9558 10.8428 16.4825 9.69668 15.638 8.85219C14.7935 8.0077 13.6474 7.53445 12.4531 7.53711ZM9.70312 12.0371C9.70312 13.5559 10.9343 14.7871 12.4531 14.7871C13.9719 14.7871 15.2031 13.5559 15.2031 12.0371C15.2031 10.5183 13.9719 9.28711 12.4531 9.28711C10.9343 9.28711 9.70312 10.5183 9.70312 12.0371Z" fill="white"></path>
</svg>