<svg width="100%" height="100%" viewBox="0 0 152 177" fill="white" xmlns="http://www.w3.org/2000/svg">
<path d="M151.362 176.323C142.146 176.323 133.151 176.359 124.168 176.249C123.541 176.249 122.681 175.208 122.398 174.474C122.091 173.678 122.325 172.662 122.325 171.743C122.325 137.361 122.362 102.979 122.312 68.5968C122.3 58.0176 120.076 48.014 113.759 39.2103C107.91 31.0433 99.6645 26.7211 90.0917 24.7007C77.8031 22.1172 65.9569 23.3783 54.6637 29.1577C46.1109 33.5289 40.323 40.4347 36.194 48.8344C31.7701 57.834 29.8531 67.4213 29.8162 77.4372C29.6811 109.15 29.423 140.851 29.3861 172.564C29.3861 175.796 28.403 176.482 25.4046 176.396C18.351 176.2 11.2727 176.335 4.21911 176.323C3.12542 176.323 2.03175 176.212 0.77832 176.151V3.7751C2.11777 3.68939 3.30977 3.56696 4.50176 3.55471C11.2605 3.53022 18.0192 3.53022 24.7779 3.55471C30.0005 3.56696 29.2878 3.29757 29.3001 7.92594C29.3615 24.9578 29.3861 42.002 29.423 59.0339C29.423 59.842 29.423 60.6379 29.423 61.9113C30.2586 55.5933 30.6641 49.6915 31.8561 43.9489C37.0542 18.9214 54.7006 2.57516 81.4159 0.407904C92.832 -0.522668 103.855 0.554846 114.534 4.43631C129.98 10.0565 140.057 21.1254 145.943 36.1982C149.163 44.4142 150.945 52.9485 151.006 61.7767C151.24 99.3913 151.412 137.018 151.596 174.633C151.596 175.025 151.498 175.417 151.375 176.31L151.362 176.323Z" fill="white"></path>
</svg>