<svg width="100%" height="100%" viewBox="0 0 170 180" fill="white" xmlns="http://www.w3.org/2000/svg">
<path d="M170.09 88.973C169.279 105.013 167.62 119.817 161.611 133.775C153.488 152.68 139.995 166.137 120.616 173.545C106.914 178.785 92.7332 180.304 78.1589 179.496C66.8043 178.871 55.8921 176.606 45.4959 172.039C28.8695 164.741 16.8267 152.754 9.15863 136.42C3.28469 123.906 0.261719 110.633 0.261719 96.8706C0.261719 87.0506 0.446005 77.1204 1.90835 67.4351C5.43516 44.0974 16.2614 24.8982 36.7956 12.1274C48.4575 4.86645 61.5202 1.76864 75.136 0.470734C85.8147 -0.545548 96.346 0.140132 106.804 2.24616C135.719 8.04999 154.79 25.0697 164.216 52.8154C167.202 61.6191 168.849 70.7166 169.254 80.0346C169.402 83.365 169.881 86.671 170.102 88.9607L170.09 88.973ZM140.351 85.2629C140.425 79.4346 139.024 69.5044 135.817 59.8681C132.044 48.5298 125.765 38.8568 115.639 32.2326C104.37 24.8492 91.8484 22.6453 78.4539 23.9432C54.9459 26.2329 40.1381 40.1669 33.6374 61.1905C27.9233 79.6673 27.8864 98.548 33.2565 117.196C37.9507 133.518 47.5358 145.995 63.8919 152.215C75.6766 156.697 87.8915 157.113 100.082 154.076C114.201 150.562 124.745 142.322 131.602 129.404C138.238 116.915 140.29 103.483 140.376 85.2629H140.351Z" fill="white"></path>
</svg>