<svg width="100%" height="100%" viewBox="0 0 200 266" fill="white" xmlns="http://www.w3.org/2000/svg">
<path d="M-0.698546 174.066C8.9357 174.066 18.1398 174.017 27.344 174.176C27.983 174.176 29.0644 175.657 29.1504 176.527C30.0106 185.196 31.8662 193.608 35.2947 201.628C43.2208 220.178 57.0086 232.251 76.5474 237.222C97.9664 242.671 119.164 241.042 139.6 232.777C152.81 227.439 162.604 218.17 166.279 204.027C170.371 188.281 168.798 173.38 156.485 161.331C149.701 154.695 141.161 150.605 132.043 148.536C115.736 144.85 99.2936 141.765 82.8392 138.753C68.2526 136.084 53.6784 133.439 40.0258 127.353C20.9416 118.843 9.05858 104.873 6.65002 83.7021C4.70843 66.6335 6.94495 50.3852 16.1122 35.5083C22.0968 25.8108 30.4653 18.6111 40.419 13.2236C53.9487 5.90145 68.5967 2.57098 83.8346 1.37104C94.329 0.53842 104.848 0.366993 115.293 1.73836C134.734 4.30968 152.27 11.3135 166.34 25.321C177.117 36.0593 184.318 49.0261 187.857 63.7928C189.664 71.2863 190.622 78.9758 191.925 86.5918C192.023 87.1673 191.827 87.7795 191.741 88.7958C188.632 88.7958 185.584 88.7958 182.536 88.7958C176.908 88.7958 171.268 88.6244 165.64 88.8692C162.481 89.0039 161.646 87.6693 161.437 84.8531C160.528 72.8659 157.21 61.65 150.439 51.5729C141.382 38.0796 128.442 30.5861 112.651 27.8433C97.1799 25.1496 81.8561 26.0067 66.9746 31.1616C51.7859 36.4267 40.8983 46.1609 37.7401 62.4459C34.1641 80.8737 39.3008 95.9342 59.54 104.787C71.2633 109.917 83.7854 112.011 96.3075 114.129C110.685 116.566 125.149 118.684 139.367 121.856C153.363 124.978 166.832 129.802 178.211 139.096C188.128 147.201 194.8 157.327 197.049 169.939C198.278 176.808 199.384 183.849 199.224 190.779C198.708 213.101 190.549 232.043 172.251 245.744C160.528 254.523 147.072 259.58 132.78 262.494C120.614 264.98 108.313 266.045 95.9265 265.739C74.0406 265.2 53.3958 260.45 35.221 247.507C21.0154 237.381 11.6269 223.765 5.63007 207.615C2.21384 198.395 0.407426 188.832 -0.673968 179.11C-0.83372 177.616 -0.698546 176.098 -0.698546 174.078V174.066Z" fill="white"></path>
</svg>