<svg width="100%" height="100%" viewBox="0 0 25 25" fill="white" xmlns="http://www.w3.org/2000/svg">
<path d="M22.0445 7.24012C21.9306 6.81752 21.708 6.43212 21.3989 6.12228C21.0897 5.81245 20.7048 5.58898 20.2825 5.47412C18.7165 5.04412 12.4515 5.03712 12.4515 5.03712C12.4515 5.03712 6.1875 5.03012 4.6205 5.44112C4.19843 5.56126 3.81432 5.78789 3.50507 6.09925C3.19581 6.41061 2.97179 6.79624 2.8545 7.21912C2.4415 8.78512 2.4375 12.0331 2.4375 12.0331C2.4375 12.0331 2.4335 15.2971 2.8435 16.8471C3.0735 17.7041 3.7485 18.3811 4.6065 18.6121C6.1885 19.0421 12.4365 19.0491 12.4365 19.0491C12.4365 19.0491 18.7015 19.0561 20.2675 18.6461C20.69 18.5315 21.0752 18.3085 21.3852 17.9993C21.6951 17.6901 21.9189 17.3054 22.0345 16.8831C22.4485 15.3181 22.4515 12.0711 22.4515 12.0711C22.4515 12.0711 22.4715 8.80612 22.0445 7.24012ZM10.4475 15.0421L10.4525 9.04212L15.6595 12.0471L10.4475 15.0421Z" fill="white"></path>
</svg>